<?xml version="1.0" standalone="no"?>
<!DOCTYPE svg PUBLIC "-//W3C//DTD SVG 20010904//EN"
 "http://www.w3.org/TR/2001/REC-SVG-20010904/DTD/svg10.dtd">
<svg version="1.0" xmlns="http://www.w3.org/2000/svg"
 width="700.000000pt" height="700.000000pt" viewBox="0 0 700.000000 700.000000"
 preserveAspectRatio="xMidYMid meet">
<metadata>
Created by potrace 1.11, written by Peter Selinger 2001-2013
</metadata>
<g transform="translate(0.000000,700.000000) scale(0.100000,-0.100000)"
fill="#000000" stroke="none">
<path d="M1036 6984 c-439 -79 -818 -401 -970 -822 -14 -40 -35 -117 -46 -171
-20 -98 -20 -132 -20 -2488 0 -1545 4 -2410 10 -2450 26 -156 108 -363 196
-495 193 -285 516 -494 847 -548 40 -6 904 -10 2448 -10 2115 0 2396 2 2469
16 451 85 822 410 969 850 65 193 61 30 61 2634 0 2601 4 2442 -60 2632 -107
318 -336 584 -633 734 -48 25 -127 58 -175 74 -192 64 -31 60 -2642 59 -2010
-1 -2387 -3 -2454 -15z m1214 -1269 l0 -1085 -1025 0 -1025 0 0 568 c0 584 6
692 41 822 45 167 171 377 292 486 175 158 386 258 598 283 41 5 309 9 597 10
l522 1 0 -1085z m2280 0 l0 -1085 -1040 0 -1040 0 0 1085 0 1085 1040 0 1040
0 0 -1085z m1423 1062 c404 -98 693 -375 810 -777 21 -73 22 -92 25 -722 l3
-648 -1031 0 -1030 0 0 1086 0 1085 578 -4 c489 -3 587 -7 645 -20z m-3703
-3357 l0 -1010 -1025 0 -1025 0 0 1010 0 1010 1025 0 1025 0 0 -1010z m2280 0
l0 -1010 -1040 0 -1040 0 0 1010 0 1010 1040 0 1040 0 0 -1010z m2260 0 l0
-1010 -1030 0 -1030 0 0 1010 0 1010 1030 0 1030 0 0 -1010z m-4540 -2210 l0
-1000 -554 0 c-588 0 -624 2 -766 50 -156 52 -307 147 -428 272 -107 110 -181
226 -233 369 -62 169 -61 165 -66 762 l-4 547 1025 0 1026 0 0 -1000z m2280 0
l0 -1000 -1040 0 -1040 0 0 1000 0 1000 1040 0 1040 0 0 -1000z m2258 433 l-4
-568 -27 -90 c-112 -368 -372 -629 -742 -742 l-90 -27 -597 -4 -598 -3 0 1000
0 1001 1031 0 1030 0 -3 -567z"/>
<path d="M1108 6188 c-119 -95 -217 -176 -217 -180 -1 -8 128 -168 136 -168 9
0 144 109 196 159 l47 45 0 -512 0 -512 145 0 145 0 -2 668 -3 667 -115 3
-115 2 -217 -172z"/>
<path d="M5415 6348 c-5 -17 -45 -579 -45 -635 0 -40 2 -43 55 -73 49 -28 58
-30 92 -20 64 18 204 24 263 11 114 -24 164 -82 164 -191 0 -95 -35 -150 -119
-186 -85 -36 -283 -17 -425 40 l-60 25 0 -125 0 -125 45 -20 c110 -49 351 -68
490 -39 243 50 377 228 362 480 -7 122 -35 190 -111 266 -93 93 -141 109 -331
109 l-150 0 12 120 c6 66 12 121 12 122 1 2 108 4 239 5 l237 3 0 120 0 120
-363 3 c-285 2 -363 0 -367 -10z"/>
<path d="M3440 4119 c-184 -20 -329 -146 -369 -320 -15 -63 -13 -235 3 -294
30 -115 97 -198 195 -243 74 -35 210 -42 297 -17 49 14 69 27 118 77 l59 60
-7 -66 c-17 -165 -94 -273 -230 -323 -52 -19 -235 -28 -303 -15 l-53 9 0 -118
0 -118 57 -7 c80 -10 277 2 348 21 211 58 357 211 415 440 45 178 45 452 -2
590 -78 233 -273 353 -528 324z m129 -249 c39 -11 95 -61 117 -103 25 -46 36
-132 24 -176 -23 -86 -100 -141 -197 -141 -119 0 -173 63 -173 202 0 170 92
258 229 218z"/>
<path d="M1355 1930 c-260 -41 -424 -194 -497 -465 -18 -68 -21 -108 -22 -265
-1 -164 2 -194 22 -265 31 -106 73 -183 135 -245 129 -128 336 -162 534 -88
82 30 181 130 212 213 75 199 45 417 -72 538 -82 84 -210 121 -341 98 -85 -14
-141 -45 -193 -107 l-40 -45 9 70 c13 109 43 178 102 237 75 76 138 97 291 98
66 1 136 -1 155 -4 l35 -5 3 109 c1 60 -2 114 -7 119 -13 13 -253 18 -326 7z
m38 -714 c78 -32 118 -134 98 -249 -21 -118 -84 -173 -191 -165 -73 5 -119 38
-154 110 -54 112 -40 214 37 272 60 46 146 59 210 32z"/>
<path d="M3283 1437 l-293 -432 0 -102 0 -103 285 0 285 0 0 -135 0 -135 140
0 140 0 0 135 0 135 80 0 80 0 0 115 0 115 -80 0 -80 0 0 420 0 420 -132 0
-133 0 -292 -433z m279 -159 l-5 -248 -154 0 c-121 0 -153 3 -147 13 5 6 69
105 144 218 75 113 142 220 149 237 8 18 15 31 16 30 1 -2 0 -114 -3 -250z"/>
<path d="M5541 1900 c-41 -11 -95 -32 -120 -47 -61 -35 -161 -112 -161 -123 0
-8 84 -112 136 -169 10 -11 24 -6 84 34 39 26 94 56 121 66 59 23 146 25 194
5 98 -41 100 -192 4 -332 -18 -27 -149 -167 -291 -311 l-259 -261 3 -99 3 -98
470 0 470 0 0 120 0 120 -290 3 -290 2 206 203 c283 278 331 356 333 538 1 91
-1 100 -34 164 -41 81 -108 141 -197 176 -84 33 -276 37 -382 9z"/>
</g>
</svg>
