<svg xmlns="http://www.w3.org/2000/svg" viewBox="0 0 438.05 47.71"><path d="M29.36,6.4l-5,4a20,20,0,0,0-3.56-3,8.72,8.72,0,0,0-4.61-1,8.83,8.83,0,0,0-5.35,1.49,4.55,4.55,0,0,0-2.06,3.84,4.65,4.65,0,0,0,1.8,3.59,24.33,24.33,0,0,0,6.1,3.41,43.24,43.24,0,0,1,6.72,3.46,16.84,16.84,0,0,1,3.95,3.53,13.38,13.38,0,0,1,3.06,8.6,12.75,12.75,0,0,1-4.07,9.52,13.56,13.56,0,0,1-9.82,3.94,16.65,16.65,0,0,1-9.93-3.08A19.34,19.34,0,0,1,0,35.4l6.12-1.72q3.33,7.56,10.23,7.56a8,8,0,0,0,5.55-2,6.49,6.49,0,0,0,2.22-5.05A6.87,6.87,0,0,0,23,30.53a10.33,10.33,0,0,0-2.89-3,30.52,30.52,0,0,0-5.49-2.74,39.33,39.33,0,0,1-5.79-2.82,15,15,0,0,1-3.51-3.06,13.12,13.12,0,0,1-2.17-3.53,10.17,10.17,0,0,1-.68-3.76,10.51,10.51,0,0,1,3.86-8.2A13.76,13.76,0,0,1,15.68,0,19.12,19.12,0,0,1,23.1,1.58,15.29,15.29,0,0,1,29.36,6.4Z" fill="#16aaff"/><path d="M37.79,1.48h6.12V29q0,6.12,2.94,9.46t8.31,3.34c3.56,0,6.33-1,8.31-3.08s3-4.93,3-8.66V1.48h6.11V29.64q0,8.22-4.69,13.15t-12.5,4.92q-8,0-12.78-5T37.79,28Z" fill="#16aaff"/><path d="M81.56,1.41H92.43q12.9,0,19.19,6.82a22.27,22.27,0,0,1,6.29,15.57,21.89,21.89,0,0,1-6.5,15.61Q104.9,46.19,92.5,46.2H81.56Zm6.12,6V40.15H88a63.17,63.17,0,0,0,10.27-.62,17,17,0,0,0,6.54-2.69,15,15,0,0,0,4.92-5.5,15.75,15.75,0,0,0,1.83-7.54,16,16,0,0,0-2.92-9.35,14.48,14.48,0,0,0-7-5.63A33.61,33.61,0,0,0,90.77,7.38Z" fill="#16aaff"/><path d="M123.12,23.54a22,22,0,0,1,7.31-16.62A24.67,24.67,0,0,1,148,0a24,24,0,0,1,17.26,7,22.22,22.22,0,0,1,7.24,16.57,23.08,23.08,0,0,1-7.15,17.16,25.33,25.33,0,0,1-35-.05A23.08,23.08,0,0,1,123.12,23.54Zm42.89.28a16.54,16.54,0,0,0-5.35-12.49,18.36,18.36,0,0,0-13.14-5.07,17.54,17.54,0,0,0-12.71,5.16,16.7,16.7,0,0,0-5.29,12.4A16.33,16.33,0,0,0,135,36.23a18.72,18.72,0,0,0,13.3,5.08,17.2,17.2,0,0,0,12.5-5.18A16.69,16.69,0,0,0,166,23.82Z" fill="#16aaff"/><path d="M180.49,1.41h6.12V19.6l19-18.19h8.53L192.49,22.19l21.79,24h-7.79L186.61,24.35V46.2h-6.12Z" fill="#16aaff"/><path d="M220,1.48h6.12V29q0,6.12,2.93,9.46t8.32,3.34c3.56,0,6.33-1,8.31-3.08s3-4.93,3-8.66V1.48h6.12V29.64q0,8.22-4.7,13.15t-12.49,4.92q-8,0-12.78-5T220,28Z" fill="#16aaff"/><path d="M263.92,1.41H270V18.63h21.41V1.41h6V46.2h-6V24.68H270V46.2h-6.12Z" fill="#db254e"/><path d="M307.09,1.41h6.05V46.2h-6.05Z" fill="#db254e"/><path d="M320.24,1.41h27.39V7.52H336.94V46.2h-6.05V7.52H320.24Z" fill="#db254e"/><path d="M355.66,43.67a2.81,2.81,0,0,1,4.8-2,2.81,2.81,0,1,1-4,4A2.68,2.68,0,0,1,355.66,43.67Z"/><path d="M382.76,24.35V30a13.19,13.19,0,0,0-6.55-2.25,5.66,5.66,0,0,0-4.5,1.93A7.63,7.63,0,0,0,370,34.86a6.81,6.81,0,0,0,1.78,4.94,6.24,6.24,0,0,0,4.74,1.86,13,13,0,0,0,6.22-2.09v5.59A22.26,22.26,0,0,1,376,46.51a10.49,10.49,0,0,1-7.91-3.42,11.65,11.65,0,0,1-3.26-8.34,11.81,11.81,0,0,1,3.32-8.48,10.73,10.73,0,0,1,8.06-3.47A16.1,16.1,0,0,1,382.76,24.35Z"/><path d="M385.75,34.65a11.35,11.35,0,0,1,3.39-8.45,11,11,0,0,1,8-3.33A11.47,11.47,0,0,1,409,34.68a11.53,11.53,0,0,1-3.32,8.44,11.3,11.3,0,0,1-8.37,3.36A11.16,11.16,0,0,1,389,43.14,11.68,11.68,0,0,1,385.75,34.65Zm11.64-7.18a5.77,5.77,0,0,0-4.68,2,7.85,7.85,0,0,0-1.77,5.31,7.31,7.31,0,0,0,1.81,5.09,5.88,5.88,0,0,0,4.57,2,6,6,0,0,0,4.68-2,7.59,7.59,0,0,0,1.79-5.26A7.43,7.43,0,0,0,402,29.48,6.14,6.14,0,0,0,397.39,27.47Z"/><path d="M414.81,23.11h5.91L425.05,37l4.33-13.84h5.7l3,23.08h-4.74l-2-16.24-5.08,16.24h-2.26l-5.21-16.38L416.8,46.19H412Z"/></svg>