<svg xmlns="http://www.w3.org/2000/svg"><symbol id="angle-down" viewBox="0 0 320 512"><path fill="currentColor" d="M151.5 347.8L3.5 201c-4.7-4.7-4.7-12.3 0-17l19.8-19.8c4.7-4.7 12.3-4.7 17 0L160 282.7l119.7-118.5c4.7-4.7 12.3-4.7 17 0l19.8 19.8c4.7 4.7 4.7 12.3 0 17l-148 146.8c-4.7 4.7-12.3 4.7-17 0z"/></symbol><symbol id="bars" viewBox="0 0 448 512"><path fill="currentColor" d="M442 114H6a6 6 0 01-6-6V84a6 6 0 016-6h436a6 6 0 016 6v24a6 6 0 01-6 6zm0 160H6a6 6 0 01-6-6v-24a6 6 0 016-6h436a6 6 0 016 6v24a6 6 0 01-6 6zm0 160H6a6 6 0 01-6-6v-24a6 6 0 016-6h436a6 6 0 016 6v24a6 6 0 01-6 6z"/></symbol><symbol id="clock-average" viewBox="0 0 624 807"><path fill="currentColor" d="M312 0C140 0 0 140 0 312s140 312 312 312 312-140 312-312S484 0 312 0zm0 563C173 563 60 450 60 311S173 59 312 59s252 113 252 252-113 252-252 252zm78-131l-107-78c-4-3-6-7-6-12V136c0-8 7-15 15-15h40c8 0 15 7 15 15v178l84 61c7 5 8 14 3 21l-24 33c-5 7-14 8-21 3z"/><path fill="none" stroke="currentColor" stroke-width="39" stroke-miterlimit="22.926" d="M25 730h577m-12-1l-99-57m102 60l-98 58M37 733l98 58M34 730l99-58"/></symbol><symbol id="clock-best" viewBox="0 0 448 512"><path fill="currentColor" d="M393.9 184l22.6-22.6c4.7-4.7 4.7-12.3 0-17l-17-17c-4.7-4.7-12.3-4.7-17 0l-20.7 20.7c-31.1-27.5-70.4-45.9-113.8-50.8V48h28c6.6 0 12-5.4 12-12V12c0-6.6-5.4-12-12-12H172c-6.6 0-12 5.4-12 12v24c0 6.6 5.4 12 12 12h28v49.4C96.4 109.3 16 197.2 16 304c0 114.9 93.1 208 208 208s208-93.1 208-208c0-44.7-14.1-86.1-38.1-120zM224 464c-88.4 0-160-71.6-160-160s71.6-160 160-160 160 71.6 160 160-71.6 160-160 160zm12-112h-24c-6.6 0-12-5.4-12-12V204c0-6.6 5.4-12 12-12h24c6.6 0 12 5.4 12 12v136c0 6.6-5.4 12-12 12z"/></symbol><symbol id="crown" viewBox="0 0 640 512"><g class="fa-group"><path fill="currentColor" d="M544 464v32a16 16 0 01-16 16H112a16 16 0 01-16-16v-32a16 16 0 0116-16h416a16 16 0 0116 16z" class="first"/><path fill="currentColor" d="M640 176a48 48 0 01-48 48 49 49 0 01-7.7-.8L512 416H128L55.7 223.2a49 49 0 01-7.7.8 48.36 48.36 0 1143.7-28.2l72.3 43.4a32 32 0 0044.2-11.6L289.7 85a48 48 0 1160.6 0l81.5 142.6a32 32 0 0044.2 11.6l72.4-43.4A47 47 0 01544 176a48 48 0 0196 0z" class="second"/></g></symbol><symbol id="flag" viewBox="0 0 512 512"><path fill="currentColor" d="M336.174 80c-49.132 0-93.305-32-161.913-32-31.301 0-58.303 6.482-80.721 15.168a48.04 48.04 0 002.142-20.727C93.067 19.575 74.167 1.594 51.201.104 23.242-1.71 0 20.431 0 48c0 17.764 9.657 33.262 24 41.562V496c0 8.837 7.163 16 16 16h16c8.837 0 16-7.163 16-16v-83.443C109.869 395.28 143.259 384 199.826 384c49.132 0 93.305 32 161.913 32 58.479 0 101.972-22.617 128.548-39.981C503.846 367.161 512 352.051 512 335.855V95.937c0-34.459-35.264-57.768-66.904-44.117C409.193 67.309 371.641 80 336.174 80zM464 336c-21.783 15.412-60.824 32-102.261 32-59.945 0-102.002-32-161.913-32-43.361 0-96.379 9.403-127.826 24V128c21.784-15.412 60.824-32 102.261-32 59.945 0 102.002 32 161.913 32 43.271 0 96.32-17.366 127.826-32v240z"/></symbol><symbol id="ar" viewBox="0 0 22 15"><path d="M21.241 15a.754.754 0 00.759-.75V.75c0-.414-.34-.75-.759-.75H.76A.754.754 0 000 .75v13.5c0 .414.34.75.759.75H21.24z" fill="#4A8656"/><path d="M11.04 11.064a3.747 3.747 0 01-3.744-3.75 3.747 3.747 0 013.744-3.75 3.747 3.747 0 013.745 3.75 3.747 3.747 0 01-3.745 3.75zm0-.39a3.357 3.357 0 003.355-3.36 3.357 3.357 0 00-3.355-3.36 3.357 3.357 0 00-3.354 3.36 3.357 3.357 0 003.354 3.36z" fill="#F7C608"/><g fill="#FFF"><path d="M16.962 7.547a.029.029 0 00-.026-.005l-.029.008-.004.001c-.022.007-.04.012-.06.02a1.448 1.448 0 00-.819.839c.046-.255.057-.355.065-.64v-.036c0-.033 0-.064.007-.093a.494.494 0 01.064-.13.439.439 0 00.229-.11.732.732 0 00.17-.224c.156-.312.234-.658.232-1.026a.922.922 0 00-.009-.108 2.089 2.089 0 01-.006-.052.029.029 0 00-.043-.021.502.502 0 01-.034.02 1.536 1.536 0 00-.628 1.116l-.007-.093L16.063 7l-.029-.375a.656.656 0 00-.014-.092c-.011-.058-.022-.112-.005-.169l.011-.038a.354.354 0 01.108-.135l.002-.002a.723.723 0 00.201-.33c.066-.21.061-.428.057-.589v-.004a1.853 1.853 0 00-.077-.537 1.022 1.022 0 00-.034-.092.028.028 0 00-.022-.018h-.005a.028.028 0 00-.022.01l-.047.058a1.43 1.43 0 00-.33.96c0 .063.006.129.014.196a5.587 5.587 0 00-.201-.576.042.042 0 01-.003-.014V5.23c-.001-.037-.002-.074 0-.112 0-.006.004-.017.012-.028l.038-.047c.024-.027.048-.054.067-.086a.72.72 0 00.09-.38c0-.185-.028-.38-.09-.612a1.57 1.57 0 00-.18-.442.436.436 0 00-.033-.044.03.03 0 00-.025-.011.029.029 0 00-.023.014c-.12.216-.18.447-.183.706-.002.216.032.402.074.549a5.463 5.463 0 00-.357-.567l-.003-.004c-.003-.004-.004-.006-.004-.004a3.428 3.428 0 01-.018-.146l.007-.014a.996.996 0 01.028-.044.5.5 0 00.054-.097.72.72 0 00.027-.369 1.648 1.648 0 00-.503-.94l-.007-.007-.035-.032a.029.029 0 00-.028-.006.029.029 0 00-.02.02l-.004.023a1.906 1.906 0 00-.001.662c.036.228.109.424.22.594a4.547 4.547 0 00-.502-.513.476.476 0 00-.086-.33.873.873 0 00-.387-.318c-.098-.043-.199-.08-.298-.117l-.144-.054c-.049-.02-.07-.023-.081-.012-.015.013-.011.025-.005.046l.002.007c.06.202.14.36.243.487.19.232.413.35.68.36a.04.04 0 01.02.006c.037.028.065.05.09.073.077.07.153.146.228.225a.68.68 0 00-.4-.092 2.467 2.467 0 00-.246.028h-.003l-.07.011a3.972 3.972 0 00-.15.024c-.019.003-.063.013-.073.035a.024.024 0 000 .023.975.975 0 00.474.363.756.756 0 00.597-.02.202.202 0 01.098-.022c.028 0 .05.005.057.006.01.002.025.008.028.012.112.146.217.303.316.467a.705.705 0 00-.34-.171 2.111 2.111 0 00-.392-.044l-.044-.003-.122-.007-.07-.004a.028.028 0 00-.022.012.028.028 0 00-.004.027.245.245 0 00.01.025c.136.227.295.383.487.48a.75.75 0 00.529.077.289.289 0 01.066-.007c.073 0 .124.022.134.042.095.194.179.396.251.601a.81.81 0 00-.317-.253c-.133-.063-.273-.12-.41-.177l-.176-.074a.028.028 0 00-.04.026c0 .019.195.56.479.773.115.087.258.177.437.18.054.002.11.01.152.057a.056.056 0 00.024.017c.014.005.018.013.025.043.059.244.101.496.127.751a1.117 1.117 0 00-.364-.521c-.085-.073-.175-.144-.261-.212l-.004-.004c-.04-.03-.08-.062-.118-.093a1.067 1.067 0 01-.026-.022L15.145 6a.029.029 0 00-.047.024l.003.049v.007c.003.032.004.063.008.093.03.292.117.537.266.747.092.13.224.288.43.363a.27.27 0 01.125.096c.037.047.043.09.043.143-.004.225-.02.449-.048.667A.915.915 0 0015.883 8a1.448 1.448 0 00-.213-.4 26.259 26.259 0 00-.258-.348l-.006-.007-.1-.134a.038.038 0 00-.02-.014.029.029 0 00-.04.017l-.002.003a1.618 1.618 0 00.107.972c.066.145.153.309.307.426a.48.48 0 01.156.213c.006.018.006.026.005.029-.065.269-.15.529-.253.775a.98.98 0 00-.006-.407 3.564 3.564 0 00-.183-.56l-.02-.05-.094-.237a.03.03 0 00-.028-.018c-.01 0-.02.006-.024.016l-.01.02c-.005.008-.01.016-.013.024-.133.3-.178.607-.134.914.032.219.086.376.175.508.046.069.09.145.098.24a.081.081 0 01-.01.054 4.306 4.306 0 01-.375.554l.001-.002c.1-.182.102-.377.092-.545-.008-.144-.025-.287-.04-.426l-.002-.008a15.783 15.783 0 01-.03-.262l-.004-.043a.028.028 0 00-.016-.023c-.015-.008-.04.005-.068.037a1.498 1.498 0 00-.347.747c-.044.283-.02.526.072.741a.067.067 0 01.003.022l-.005.124a.042.042 0 01-.01.022 3.327 3.327 0 01-.617.469.819.819 0 00.23-.376 3.62 3.62 0 00.11-.53l.002-.016.03-.186.01-.07a.028.028 0 00-.01-.028.029.029 0 00-.028-.004l-.01.005a1.23 1.23 0 00-.686 1.174.56.56 0 01-.02.208.029.029 0 01-.011.014c-.2.084-.389.145-.58.187a.028.028 0 00-.015.046c.02.025.039.051.053.079a.03.03 0 00.032.014c.155-.035.307-.081.45-.136a.054.054 0 01.029-.006c.031.005.065.011.103.02l.014.006c.081.162.222.266.429.316a1.242 1.242 0 00.3.031c.08 0 .138-.005.139-.005.18-.02.333-.06.469-.123a.437.437 0 00.168-.123.029.029 0 00-.004-.039 1.464 1.464 0 00-.43-.27 1.099 1.099 0 00-.714-.053 3.49 3.49 0 00.535-.392.029.029 0 01.012-.006c.028-.005.065-.01.102-.013l.009.002a.508.508 0 00.427.168c.182-.005.366-.056.546-.149.13-.068.266-.147.377-.265a.932.932 0 00.065-.082l.002-.003.026-.034a.029.029 0 00.006-.023.03.03 0 00-.014-.02 1.252 1.252 0 00-.94-.076.904.904 0 00-.258.133c.153-.177.294-.371.423-.58l.006-.01a1.01 1.01 0 01.034-.02c.02-.012.042-.025.062-.04.017-.012.021-.012.038-.001a.26.26 0 00.077.03.641.641 0 00.446-.057 1.19 1.19 0 00.357-.282c.144-.155.238-.294.296-.44a.882.882 0 00.042-.136.028.028 0 00-.018-.035h-.012c-.058 0-.584.008-.89.306a1.588 1.588 0 00-.182.209c.121-.257.224-.528.307-.81l.002-.004.003-.01.08-.11c.003-.004.004-.004.009-.004h.007l.017.001c.06.004.095.003.124-.001a.558.558 0 00.315-.176 1.93 1.93 0 00.482-.895c.01-.04.014-.08.017-.122a1.64 1.64 0 01.005-.059.032.032 0 00-.01-.025z"/><path d="M11.398 12.71a.543.543 0 01-.627.008c-1.04.23-1.621.307-1.742.23-.128-.083-.175-.176-.142-.28.128-.491.236-.814.324-.968.087-.154.213-.211.378-.173l1.033.437a.545.545 0 01.923.018l1.076-.455c.164-.038.29.02.378.173.088.154.195.477.323.969.034.103-.013.196-.142.279-.121.078-.716-.002-1.782-.239z"/><path d="M9.187 11.821a3.33 3.33 0 01-.58-.187.03.03 0 01-.01-.014.56.56 0 01-.02-.209 1.23 1.23 0 00-.686-1.174l-.01-.004a.029.029 0 00-.028.004.028.028 0 00-.01.027l.01.071.03.186.003.016c.027.175.055.356.109.53a.814.814 0 00.23.376 3.322 3.322 0 01-.617-.469.041.041 0 01-.01-.022l-.005-.124c0-.004 0-.016.003-.022.092-.215.116-.458.072-.741a1.498 1.498 0 00-.347-.747c-.022-.026-.041-.04-.058-.04-.004 0-.007.002-.01.003a.029.029 0 00-.016.022l-.005.044a15.864 15.864 0 01-.03.262v.008c-.016.139-.033.282-.041.426-.01.167-.008.363.092.544l.001.003a4.307 4.307 0 01-.376-.554c-.01-.017-.01-.033-.009-.055a.503.503 0 01.098-.239 1.18 1.18 0 00.175-.509c.044-.306 0-.613-.134-.913l-.012-.025-.01-.02a.029.029 0 00-.052.003l-.095.237-.02.05a3.57 3.57 0 00-.183.56.98.98 0 00-.006.406 5.077 5.077 0 01-.254-.775c0-.003 0-.01.006-.028a.477.477 0 01.156-.213 1.06 1.06 0 00.306-.426 1.618 1.618 0 00.108-.972l-.001-.003a.029.029 0 00-.017-.018.03.03 0 00-.022 0 .04.04 0 00-.021.014l-.101.134-.006.008c-.085.113-.174.23-.258.347a1.448 1.448 0 00-.213.4.917.917 0 00-.042.189 5.917 5.917 0 01-.048-.667c0-.054.006-.096.043-.143a.267.267 0 01.125-.096c.206-.075.338-.234.43-.363a1.535 1.535 0 00.273-.84V6.07l.004-.049a.029.029 0 00-.047-.024l-.025.021-.025.021-.118.094-.004.003c-.086.069-.176.14-.261.213a1.117 1.117 0 00-.364.521 5.77 5.77 0 01.127-.75c.007-.03.01-.04.025-.044a.055.055 0 00.024-.017c.042-.048.098-.055.152-.056.18-.004.322-.094.437-.181.284-.213.48-.755.48-.773a.029.029 0 00-.04-.026l-.18.075a8.057 8.057 0 00-.407.176.81.81 0 00-.317.253c.072-.205.156-.407.25-.6.011-.021.062-.044.135-.044a.29.29 0 01.066.008.75.75 0 00.528-.078c.193-.096.352-.253.488-.48a.235.235 0 00.01-.025.028.028 0 00-.004-.027.03.03 0 00-.024-.011l-.068.004-.123.007-.043.002c-.128.007-.261.014-.392.045a.705.705 0 00-.34.171c.098-.164.204-.32.316-.467.003-.004.017-.01.03-.012a.256.256 0 01.055-.006.21.21 0 01.099.023.757.757 0 00.596.019.975.975 0 00.473-.363.024.024 0 00.001-.023c-.01-.022-.054-.032-.073-.035a3.972 3.972 0 00-.15-.024 8.945 8.945 0 01-.07-.01h-.003a2.451 2.451 0 00-.247-.03.68.68 0 00-.399.093c.075-.08.15-.154.228-.225.025-.022.052-.045.09-.073a.04.04 0 01.02-.006c.267-.01.49-.128.68-.36.103-.126.183-.285.243-.487l.002-.007c.006-.021.01-.033-.005-.046-.011-.01-.031-.008-.083.013l-.144.053c-.097.037-.199.074-.296.116a.873.873 0 00-.387.32.476.476 0 00-.088.333 4.56 4.56 0 00-.5.509c.111-.17.184-.366.22-.594a1.906 1.906 0 000-.662l-.006-.023a.029.029 0 00-.02-.02.03.03 0 00-.028.006 2.153 2.153 0 01-.034.032l-.008.007a1.648 1.648 0 00-.503.94.72.72 0 00.028.369.503.503 0 00.054.098c.01.014.02.028.028.043l.007.013-.017.145-.005.006-.003.004c-.13.18-.25.37-.357.567.042-.147.076-.333.074-.549a1.452 1.452 0 00-.183-.706.031.031 0 00-.025-.015.028.028 0 00-.023.012 1.57 1.57 0 00-.213.485c-.062.234-.09.428-.09.613 0 .157.03.278.09.38.02.032.043.06.067.087l.038.046a.056.056 0 01.012.028c.002.038.001.075 0 .112v.025a.04.04 0 01-.003.013 5.592 5.592 0 00-.201.577c.008-.067.013-.133.014-.196a1.43 1.43 0 00-.33-.96l-.047-.058a.028.028 0 00-.022-.01h-.005a.029.029 0 00-.022.018 2.44 2.44 0 01-.034.092 1.854 1.854 0 00-.077.537v.004c-.004.16-.01.38.057.59.064.206.179.31.2.329l.003.002c.06.054.1.103.108.135a.848.848 0 00.01.038c.018.057.007.111-.005.17a.7.7 0 00-.014.09A27.57 27.57 0 016.133 7l-.001.012-.008.094a1.535 1.535 0 00-.661-1.137.029.029 0 00-.043.022 2.367 2.367 0 01-.007.052c-.004.037-.008.071-.008.107a2.25 2.25 0 00.232 1.026c.043.087.1.162.17.224a.44.44 0 00.228.11l.007.003.014.027a.494.494 0 01.043.1.35.35 0 01.008.093v.036c.008.285.019.385.064.64a1.448 1.448 0 00-.82-.839c-.017-.008-.036-.013-.058-.02l-.005-.001a2.514 2.514 0 01-.028-.008.029.029 0 00-.037.03l.005.059a.678.678 0 00.016.121c.096.368.253.66.483.896.097.1.2.157.315.175a.58.58 0 00.124.002l.017-.001h.007c.005 0 .005 0 .009.004l.08.11a.055.055 0 01.003.01l.001.004c.083.281.186.552.308.81a1.586 1.586 0 00-.181-.21c-.308-.297-.833-.306-.892-.306h-.007l-.005.001a.028.028 0 00-.017.035l.012.044c.008.03.017.062.03.092.057.145.152.285.296.44.1.106.211.214.357.282a.64.64 0 00.446.056.26.26 0 00.076-.03c.017-.01.022-.01.039.002a.668.668 0 00.095.06 4.483 4.483 0 00.43.59.904.904 0 00-.258-.132 1.251 1.251 0 00-.942.076.029.029 0 00-.007.041l.026.035.002.002c.02.027.041.056.066.083.11.118.246.197.377.265a1.273 1.273 0 00.572.15c.168 0 .3-.056.4-.169a.02.02 0 01.008-.002.797.797 0 01.103.013c.004 0 .01.003.013.006.169.15.348.28.535.392a1.099 1.099 0 00-.715.053c-.151.06-.291.148-.43.27a.028.028 0 00-.003.04.437.437 0 00.168.122 1.5 1.5 0 00.469.123 1.554 1.554 0 00.3-.003c.047-.005.094-.013.139-.023.207-.05.347-.154.428-.315a.042.042 0 01.015-.007.945.945 0 01.103-.02.057.057 0 01.029.006 3.293 3.293 0 00.456.137.03.03 0 00.025-.015.459.459 0 01.054-.079.028.028 0 00-.016-.046z"/></g><path d="M12.984 5.12a2.938 2.938 0 00-.268-.198m-3.383 0a2.937 2.937 0 00-.098.074 2.381 2.381 0 001.826 3.91 2.381 2.381 0 001.923-3.786c.63.524.98 1.278.98 2.182 0 1.618-1.31 2.93-2.925 2.93a2.928 2.928 0 01-2.926-2.93c0-.936.44-1.77 1.122-2.306" fill="#FFF"/></symbol><symbol id="br" viewBox="0 0 22 15"><g fill="none"><path fill="#4C8056" d="M17.069 14.981h4.172a.753.753 0 00.759-.748V.767a.753.753 0 00-.759-.748H.76A.753.753 0 000 .767v13.466c0 .413.34.748.759.748h16.31z"/><path fill="#F3D55B" d="M3.414 7.126L11 11.989l7.586-4.863L11 2.263z"/><path fill="#3B97D3" d="M13.655 7.126a2.542 2.542 0 01-.5 1.526A2.652 2.652 0 0111 9.744a2.68 2.68 0 01-1.88-.766 2.598 2.598 0 01-.776-1.852c0-.02 0-.04.004-.06.002-.3.062-.597.174-.875a2.66 2.66 0 012.961-1.64 2.627 2.627 0 012.171 2.575z"/><path fill="#ECF0F1" d="M13.154 8.652a2.527 2.527 0 01-.64.625l-.038-.21a2.808 2.808 0 00-1.455-1.981 2.88 2.88 0 00-2.479-.102l-.193.082c.003-.3.062-.596.174-.875.37-.126.758-.189 1.15-.187 1.637-.005 3.07 1.085 3.481 2.648z"/></g></symbol><symbol id="de" viewBox="0 0 640 480"><path fill="#ffce00" d="M0 320h640v160H0z"/><path d="M0 0h640v160H0z"/><path fill="#d00" d="M0 160h640v160H0z"/></symbol><symbol id="en" viewBox="0 0 22 15"><g fill="none"><path fill="#E6E7E8" d="M22 13.485v.748a.756.756 0 01-.759.748H.76a.756.756 0 01-.76-.748v-.748h22z"/><path fill="#C03A2B" d="M22 .767v12.718H0V.767A.756.756 0 01.759.02H21.24a.756.756 0 01.76.747z"/><path fill="#285680" d="M.759.019h9.862V7.5H0V.767C0 .354.34.02.759.02z"/><path fill="#E6E7E8" d="M10.621 1.515H22v1.496H10.621zm0 2.993H22v1.496H10.621zM0 7.5h22v1.496H0zm13.777 4.489H22v-1.497H0v1.497h8.223"/><path fill="#ECF0F1" d="M.759.393l.176.351.393.057-.285.273.067.386-.351-.182-.352.182.067-.386L.19.801.583.744zm1.517 0l.176.351.393.057-.285.273.067.386-.351-.182-.352.182.067-.386-.284-.273L2.1.744zm1.517 0l.176.351.393.057-.284.273.067.386-.352-.182-.352.182.068-.386-.285-.273.393-.057zm1.517 0l.176.351.393.057-.284.273.067.386-.352-.182-.351.182.067-.386L4.74.801l.393-.057zm1.518 0l.176.351.393.057-.285.273.067.386-.351-.182-.352.182.067-.386L6.26.801l.393-.057zm1.517 0l.176.351.393.057-.285.273.067.386-.351-.182-.352.182.067-.386-.284-.273.393-.057zm1.517 0l.176.351.393.057-.284.273.067.386-.352-.182-.352.182.068-.386-.285-.273.393-.057zM1.612 1.81l.176.35.393.057-.284.274.067.386-.352-.183-.352.183.068-.386-.285-.274.393-.056zm1.518 0l.175.35.393.057-.284.274.067.386-.352-.183-.351.183.067-.386-.285-.274.393-.056zm1.517 0l.176.35.393.057-.285.274.067.386-.351-.183-.352.183.067-.386-.284-.274.393-.056zm1.517 0l.176.35.393.057-.285.274.067.386-.351-.183-.352.183.067-.386-.284-.274.393-.056zm1.517 0l.176.35.393.057-.284.274.067.386-.352-.183-.352.183.068-.386-.285-.274.393-.056zm1.517 0l.176.35.393.057-.284.274.067.386-.352-.183-.351.183.067-.386-.285-.274.393-.056zM.759 3.226l.176.351.393.056-.285.274.067.386-.351-.182-.352.182.067-.386-.284-.274.393-.056zm1.517 0l.176.351.393.056-.285.274.067.386-.351-.182-.352.182.067-.386-.284-.274.393-.056zm1.517 0l.176.351.393.056-.284.274.067.386-.352-.182-.352.182.068-.386-.285-.274.393-.056zm1.517 0l.176.351.393.056-.284.274.067.386-.352-.182-.351.182.067-.386-.285-.274.393-.056zm1.518 0l.176.351.393.056-.285.274.067.386-.351-.182-.352.182.067-.386-.284-.274.393-.056zm1.517 0l.176.351.393.056-.285.274.067.386-.351-.182-.352.182.067-.386-.284-.274.393-.056zm1.517 0l.176.351.393.056-.284.274.067.386-.352-.182-.352.182.068-.386-.285-.274.393-.056zM.759 6.059l.176.351.393.056-.285.274.067.386-.351-.182-.352.182.067-.386-.284-.274.393-.056zm1.517 0l.176.351.393.056-.285.274.067.386-.351-.182-.352.182.067-.386-.284-.274.393-.056zm1.517 0l.176.351.393.056-.284.274.067.386-.352-.182-.352.182.068-.386-.285-.274.393-.056zm1.517 0l.176.351.393.056-.284.274.067.386-.352-.182-.351.182.067-.386-.285-.274.393-.056zm1.518 0l.176.351.393.056-.285.274.067.386-.351-.182-.352.182.067-.386-.284-.274.393-.056zm1.517 0l.176.351.393.056-.285.274.067.386-.351-.182-.352.182.067-.386-.284-.274.393-.056zm1.517 0l.176.351.393.056-.284.274.067.386-.352-.182-.352.182.068-.386-.285-.274.393-.056zm-8.25-1.417l.176.351.393.057-.284.273.067.386-.352-.182-.352.182.068-.386-.285-.273.393-.057zm1.518 0l.175.351.393.057-.284.273.067.386-.352-.182-.351.182.067-.386-.285-.273.393-.057zm1.517 0l.176.351.393.057-.285.273.067.386-.351-.182-.352.182.067-.386-.284-.273.393-.057zm1.517 0l.176.351.393.057-.285.273.067.386-.351-.182-.352.182.067-.386-.284-.273.393-.057zm1.517 0l.176.351.393.057-.284.273.067.386-.352-.182-.352.182.068-.386-.285-.273.393-.057zm1.517 0l.176.351.393.057-.284.273.067.386-.352-.182-.351.182.067-.386-.285-.273.393-.057z"/></g></symbol><symbol id="es" viewBox="0 0 22 15"><g fill="none"><path fill="#C03A2B" d="M17.069 14.981h4.172a.753.753 0 00.759-.748V.767a.753.753 0 00-.759-.748H.76A.753.753 0 000 .767v13.466c0 .413.34.748.759.748h16.31z"/><path fill="#F0C419" d="M14.812 12.363H22V2.637H0v9.726h7.188z"/><path fill="#FFF" d="M5.31 6.752h1.517v1.496H5.31z"/><path fill="#D75E72" d="M3.793 6.752H5.31v1.496H3.793z"/><path fill="#F0C419" d="M6.828 8.248v.748c0 .298-.12.584-.333.794-.214.21-.503.329-.805.328h-.76c-.302 0-.591-.117-.805-.328a1.113 1.113 0 01-.333-.794v-.748h3.035z"/><path fill="#D75E72" d="M6.828 8.248v.748c0 .62-.255 1.122-.57 1.122H5.31v-1.87h1.518z"/><path fill="#F0C419" d="M5.31 6.004v.748H3.793a.378.378 0 01-.38-.374v-.374a.756.756 0 01.76-.748h.379a.755.755 0 01.758.748zm1.897 0v.374c0 .206-.17.373-.38.374H5.31v-.748a.755.755 0 01.759-.748h.38a.756.756 0 01.758.748z"/><path fill="#FFF" d="M2.655 10.492h-.758a.377.377 0 01-.38-.374c0-.206.17-.374.38-.374V6.752c0-.207.17-.374.379-.374.21 0 .38.167.38.374v2.992c.209 0 .379.168.379.374 0 .207-.17.374-.38.374zm6.069 0h-.758a.377.377 0 01-.38-.374c0-.206.17-.374.38-.374V6.752c0-.207.17-.374.379-.374.21 0 .38.167.38.374v2.992c.209 0 .378.168.378.374 0 .207-.17.374-.379.374z"/><path fill="#C03A2B" d="M6.448 4.882h-.38c-.129 0-.257.024-.378.069v-.443a.377.377 0 00-.38-.374.376.376 0 00-.379.374v.443a1.138 1.138 0 00-.38-.07h-.379a1.132 1.132 0 00-1.138 1.123v.374a.745.745 0 00.38.644v1.974c0 .826.68 1.496 1.517 1.496h.759c.837 0 1.516-.67 1.517-1.496V7.022a.744.744 0 00.38-.644v-.374a1.131 1.131 0 00-1.139-1.122zm-.38.748h.38c.21 0 .38.167.38.374v.374H5.69v-.374c0-.207.17-.374.379-.374zm.38 2.244H5.69v-.748h.758v.748zm-1.517 0h-.759v-.748h.759v.748zm-1.138-1.87c0-.207.17-.374.38-.374h.379c.21 0 .379.167.38.374v.374h-1.14v-.374zm.38 2.992v-.374h.758v1.122a.754.754 0 01-.759-.748zm1.517.748V8.622h.758v.374c0 .413-.34.748-.758.748z"/></g></symbol><symbol id="fr" viewBox="0 0 640 480"><g fill-rule="evenodd" stroke-width="1pt"><path fill="#E6E7E8" d="M0 0h640v480H0z"/><path fill="#00267f" d="M0 0h213.3v480H0z"/><path fill="#f31830" d="M426.7 0H640v480H426.7z"/></g></symbol><symbol id="it" viewBox="0 0 640 480"><g fill-rule="evenodd" stroke-width="1pt"><path fill="#E6E7E8" d="M0 0h640v480H0z"/><path fill="#009246" d="M0 0h213.3v480H0z"/><path fill="#ce2b37" d="M426.7 0H640v480H426.7z"/></g></symbol><symbol id="jp" viewBox="0 0 22 15"><g fill="none"><path fill="#E6E7E8" d="M17.069 14.962h4.172a.753.753 0 00.759-.748V.748A.753.753 0 0021.241 0H.76A.753.753 0 000 .748v13.466c0 .413.34.748.759.748h16.31z"/><ellipse cx="11.172" cy="8.115" fill="#C03A2B" rx="4.172" ry="4.115"/></g></symbol><symbol id="ko" viewBox="0 80 500 350"><path d="M397.241 432.552h97.103c9.751 0 17.655-7.905 17.655-17.655V97.103c0-9.751-7.905-17.655-17.655-17.655H17.655C7.904 79.448 0 87.353 0 97.103v317.793c0 9.751 7.904 17.655 17.655 17.655h379.586z" fill="#e6e7e8"/><path d="M326.179 238.963c-4.277-38.131-38.104-65.947-76.343-62.777-38.239 3.17-67.024 36.176-64.964 74.491 2.06 38.315 34.217 68.044 72.576 67.096 38.359-.948 69.008-32.23 69.172-70.6.001-2.737-.176-5.474-.441-8.21z" fill="#c03a2b"/><path d="M326.621 247.172c0 39.003-31.618 70.621-70.621 70.621s-70.621-31.618-70.621-70.621l3.708-3.708a44.652 44.652 0 0163.206 0l3.708 3.708a44.77 44.77 0 0066.472-3.62l3.708-4.59c.263 2.737.44 5.474.44 8.21z" fill="#285680"/><path d="M60.698 190.879a8.827 8.827 0 01-7.53-13.422l27.569-45.224a8.828 8.828 0 0112.125-2.929 8.829 8.829 0 012.953 12.119l-27.569 45.224a8.821 8.821 0 01-7.548 4.232zm22.612 13.785a8.827 8.827 0 01-7.53-13.422l27.569-45.224a8.828 8.828 0 0112.125-2.929 8.829 8.829 0 012.953 12.119l-27.569 45.224a8.825 8.825 0 01-7.548 4.232zm22.612 13.784a8.827 8.827 0 01-7.53-13.422l27.569-45.224a8.828 8.828 0 0112.125-2.929 8.829 8.829 0 012.953 12.119l-27.569 45.224a8.823 8.823 0 01-7.548 4.232zM88.285 384a8.821 8.821 0 01-7.548-4.233l-27.569-45.224a8.829 8.829 0 1115.078-9.19l27.569 45.224A8.826 8.826 0 0188.285 384zm22.612-13.784a8.821 8.821 0 01-7.548-4.233L75.78 320.759a8.829 8.829 0 0115.077-9.19l27.569 45.224a8.826 8.826 0 01-7.529 13.423zm22.611-13.785a8.821 8.821 0 01-7.548-4.233l-27.569-45.224a8.829 8.829 0 1115.078-9.19l27.569 45.224a8.826 8.826 0 01-7.53 13.423zm317.794-165.552a8.821 8.821 0 01-7.548-4.233l-27.569-45.224a8.829 8.829 0 1115.078-9.19l27.569 45.224a8.826 8.826 0 01-7.53 13.423zm-22.612 13.785a8.821 8.821 0 01-7.548-4.233l-27.569-45.224a8.83 8.83 0 0115.078-9.19l27.569 45.224a8.826 8.826 0 01-7.53 13.423zm-22.612 13.784a8.821 8.821 0 01-7.548-4.233l-27.569-45.224a8.83 8.83 0 0115.078-9.19l27.569 45.224a8.826 8.826 0 01-7.53 13.423zM423.715 384a8.827 8.827 0 01-7.53-13.422l27.569-45.224a8.828 8.828 0 1115.078 9.19l-27.569 45.224a8.823 8.823 0 01-7.548 4.232zm-22.612-13.784a8.827 8.827 0 01-7.53-13.422l27.569-45.224a8.829 8.829 0 1115.077 9.19l-27.569 45.224a8.823 8.823 0 01-7.547 4.232zm-22.611-13.785a8.827 8.827 0 01-7.53-13.422l27.569-45.224a8.828 8.828 0 1115.078 9.19l-27.569 45.224a8.824 8.824 0 01-7.548 4.232z" fill="#2c2f38"/></symbol><symbol id="mx" viewBox="0 80 500 350"><path fill="#d80027" d="M341.334 85.33H0v341.332h512V85.33z"/><path fill="#6da544" d="M0 85.333h170.663V426.67H0z"/><path fill="#f0f0f0" d="M170.663 85.333h170.663V426.67H170.663z"/><path d="M208 255.996c0 26.509 21.491 48 48 48s48-21.491 48-48v-16h-96v16z" fill="#6da544"/><path d="M320 223.996h-48c0-8.836-7.164-16-16-16s-16 7.164-16 16h-48c0 8.836 7.697 16 16.533 16H208c0 8.836 7.164 16 16 16 0 8.836 7.164 16 16 16h32c8.836 0 16-7.164 16-16 8.836 0 16-7.164 16-16h-.533c8.836 0 16.533-7.163 16.533-16z" fill="#ff9811"/></symbol><symbol id="pl" viewBox="0 0 640 480"><g fill-rule="evenodd"><path fill="#E6E7E8" d="M640 480H0V0h640z"/><path fill="#dc143c" d="M640 480H0V240h640z"/></g></symbol><symbol id="pt" viewBox="0 80 500 350"><path fill="#d80027" d="M0 85.337h512v341.326H0z"/><path fill="#6da544" d="M196.641 85.337v341.326H0V85.337z"/><circle cx="196.641" cy="256" r="64" fill="#ffda44"/><path d="M160.638 224v40.001c0 19.882 16.118 36 36 36s36-16.118 36-36V224h-72z" fill="#d80027"/><path d="M196.638 276c-6.617 0-12-5.383-12-12v-16h24.001v16c-.001 6.616-5.385 12-12.001 12z" fill="#f0f0f0"/></symbol><symbol id="ru" viewBox="0 0 640 480"><g fill-rule="evenodd" stroke-width="1pt"><path fill="#E6E7E8" d="M0 0h640v480H0z"/><path fill="#0039a6" d="M0 160h640v320H0z"/><path fill="#d52b1e" d="M0 320h640v160H0z"/></g></symbol><symbol id="th" viewBox="0 0 640 480"><g fill-rule="evenodd"><path fill="#e6e7e8" d="M0 0h640v480H0z"/><path fill="#2d2a4a" d="M0 162.5h640v160H0z"/><path fill="#a51931" d="M0 0h640v82.5H0zm0 400h640v80H0z"/></g></symbol><symbol id="tr" viewBox="0 0 640 480"><g fill-rule="evenodd"><path fill="#e30a17" d="M0 0h640v480H0z"/><path fill="#fff" d="M407 247.5c0 66.2-54.6 119.9-122 119.9s-122-53.7-122-120 54.6-119.8 122-119.8 122 53.7 122 119.9z"/><path fill="#e30a17" d="M413 247.5c0 53-43.6 95.9-97.5 95.9s-97.6-43-97.6-96 43.7-95.8 97.6-95.8 97.6 42.9 97.6 95.9z"/><path fill="#fff" d="M430.7 191.5l-1 44.3-41.3 11.2 40.8 14.5-1 40.7 26.5-31.8 40.2 14-23.2-34.1 28.3-33.9-43.5 12-25.8-37z"/></g></symbol><symbol id="tw" viewBox="0 0 22 15"><g fill="none"><path fill="#C03A2B" d="M17.069 14.981h4.172a.753.753 0 00.759-.748V.767a.753.753 0 00-.759-.748H.76A.753.753 0 000 .767v13.466c0 .413.34.748.759.748h16.31z"/><path fill="#F3D55B" d="M3.682 2.637l.668 1.337 1.496.214-1.082 1.04.255 1.469-1.337-.694-1.338.694.255-1.469-1.082-1.04 1.496-.214zM6.631 1.36l.528.177.446-.329-.007.55.455.316-.532.164-.165.524-.322-.449-.557.008.333-.44zm0 6.609l.528.176.446-.329-.007.55.455.317-.532.163-.165.524-.322-.448-.557.007.333-.44zM8.5 3.48l.526.176.447-.328-.007.549.454.317-.531.163-.166.525-.321-.449-.557.007.333-.44zm0 2.676l.526.176.447-.328-.007.549.454.317-.531.163-.166.525-.321-.449-.557.007.333-.44z"/></g></symbol><symbol id="vi" viewBox="0 80 500 350"><path d="M397.241 432.552h97.103c9.751 0 17.655-7.905 17.655-17.655V97.103c0-9.751-7.905-17.655-17.655-17.655H17.655C7.904 79.448 0 87.353 0 97.103v317.793c0 9.751 7.904 17.655 17.655 17.655h379.586z" fill="#c03a2b"/><path fill="#f3d55b" d="M256 158.897l31.55 63.929 70.55 10.249-51.05 49.761 12.05 70.267-63.1-33.174-63.1 33.174 12.05-70.267-51.05-49.761 70.55-10.249z"/></symbol><symbol id="zh" viewBox="0 0 22 15"><g fill="none"><path fill="#C03A2B" d="M17.069 14.981h4.172a.753.753 0 00.759-.748V.767a.753.753 0 00-.759-.748H.76A.753.753 0 000 .767v13.466c0 .413.34.748.759.748h16.31z"/><path fill="#F3D55B" d="M3.682 2.637l.668 1.337 1.496.214-1.082 1.04.255 1.469-1.337-.694-1.338.694.255-1.469-1.082-1.04 1.496-.214zM6.631 1.36l.528.177.446-.329-.007.55.455.316-.532.164-.165.524-.322-.449-.557.008.333-.44zm0 6.609l.528.176.446-.329-.007.55.455.317-.532.163-.165.524-.322-.448-.557.007.333-.44zM8.5 3.48l.526.176.447-.328-.007.549.454.317-.531.163-.166.525-.321-.449-.557.007.333-.44zm0 2.676l.526.176.447-.328-.007.549.454.317-.531.163-.166.525-.321-.449-.557.007.333-.44z"/></g></symbol><symbol id="0" viewBox="0 0 24.77 34.9"><path d="M18.53 1.66A11.69 11.69 0 0123 7.22a25.7 25.7 0 011.73 10.25q0 9.27-3.55 13.35a11.26 11.26 0 01-8.84 4.08 11.73 11.73 0 01-6.09-1.66 11.78 11.78 0 01-4.5-5.54A25.15 25.15 0 010 17.47 25.1 25.1 0 011.75 7.25a12 12 0 014.54-5.57A11.56 11.56 0 0112.38 0a11.77 11.77 0 016.15 1.66zm.33 27.21q2.55-3.24 2.55-11.4T18.86 6.05a7.85 7.85 0 00-6.48-3.27A7.83 7.83 0 006 6.05Q3.41 9.31 3.41 17.47T6 28.87a7.85 7.85 0 006.43 3.24 7.88 7.88 0 006.43-3.24z"/></symbol><symbol id="1" viewBox="0 0 9.36 33.65"><path d="M9.36 33.65H6.19V6.38H0v-2.3h.62A6.88 6.88 0 004.94 3a4.36 4.36 0 001.59-3h2.83z"/></symbol><symbol id="2" viewBox="0 0 21.98 34.27"><path d="M21.79 34.27H.14V33a11.86 11.86 0 011.23-5.57 12.64 12.64 0 013.07-3.93A50 50 0 019.31 20l2.83-1.78a32.81 32.81 0 003.46-2.47 9.27 9.27 0 002.18-2.62 6.89 6.89 0 00.84-3.45 6.39 6.39 0 00-2-5 7.57 7.57 0 00-5.28-1.83A7.21 7.21 0 005.93 5a10 10 0 00-2.62 6L0 10.7a12.38 12.38 0 013.77-7.92A10.91 10.91 0 0111.33 0a13.15 13.15 0 015.4 1.08 8.8 8.8 0 013.84 3.24A9.27 9.27 0 0122 9.5a9.46 9.46 0 01-1.05 4.61 11.63 11.63 0 01-2.57 3.22 37.13 37.13 0 01-4.1 2.93l-.51.28q-.25.15-.6.39l-2.54 1.73a26.36 26.36 0 00-5.21 4.2 6.5 6.5 0 00-1.8 4.48h18.17z"/></symbol><symbol id="3" viewBox="0 0 23.28 34.9"><path d="M16.78 13.92a5.84 5.84 0 002-4.7 5.75 5.75 0 00-2-4.68 7.62 7.62 0 00-5.07-1.71 6.92 6.92 0 00-4.85 1.71 8.23 8.23 0 00-2.35 5.11l-3.26-.43a10.26 10.26 0 013.38-6.84A10.55 10.55 0 0111.71 0a12.57 12.57 0 015.21 1.06 8.77 8.77 0 013.79 3.14 8.67 8.67 0 011.42 5 7.45 7.45 0 01-1.42 4.53 8.5 8.5 0 01-3.77 2.91v.09a9.94 9.94 0 014.61 3.17 8.12 8.12 0 011.73 5.23 9 9 0 01-1.56 5.33 9.47 9.47 0 01-4.2 3.31 14.85 14.85 0 01-5.81 1.11 12.13 12.13 0 01-7.94-2.62A10.82 10.82 0 010 24.82l3.31-.39A9.06 9.06 0 006 30.05a8.09 8.09 0 005.69 2.06 9 9 0 005.88-1.89 6.23 6.23 0 002.33-5.07 6 6 0 00-2.33-5 9.56 9.56 0 00-6-1.8h-3v-2.7h3.12a7.66 7.66 0 005.09-1.73z"/></symbol><symbol id="4" viewBox="0 0 23.95 33.65"><path d="M24 21.7v2.68h-4.46v9.27h-3.17v-9.27H0v-2.73L14.74 0h4.8v21.7zm-20.59 0h13V2.64h-.1L3.36 21.6z"/></symbol><symbol id="5" viewBox="0 0 22.56 34.27"><path d="M17.06 12.31a10 10 0 014 3.94 12.59 12.59 0 011.51 6.41 12.58 12.58 0 01-1.51 6.4A9.7 9.7 0 0116.94 33a12.61 12.61 0 01-5.71 1.29A11.75 11.75 0 013.86 32 10.74 10.74 0 010 25.82l3.36-.38a8 8 0 002.78 4.42 8 8 0 005.09 1.63 8 8 0 004-1 7.32 7.32 0 002.88-3 10 10 0 001.08-4.82q0-4.28-2.28-6.56a7.66 7.66 0 00-5.64-2.28 10.11 10.11 0 00-4.32.92 9.56 9.56 0 00-3.45 2.63H.43L1.92 0H20.5v2.93H4.61l-1 11.28h.09A8.14 8.14 0 017 11.83a11.88 11.88 0 014.62-.83 11.34 11.34 0 015.44 1.31z"/></symbol><symbol id="6" viewBox="0 0 23.42 34.9"><path d="M17.93 14.21a9.8 9.8 0 014 3.69 10.84 10.84 0 011.51 5.81 11.06 11.06 0 01-1.58 6 10.63 10.63 0 01-4.1 3.84 11.4 11.4 0 01-5.36 1.32q-6.72 0-10-5.14a14.31 14.31 0 01-1.87-5.2A42.62 42.62 0 010 17.42Q0 7.88 3.58 3.94A11.41 11.41 0 0112.38 0a10.74 10.74 0 016.46 2 10.17 10.17 0 013.86 5.63l-3.36.48a7.72 7.72 0 00-2.52-3.81 6.65 6.65 0 00-4.44-1.56A8.05 8.05 0 006 5.86Q3.36 9 3.36 17.18v.68h.1a9.47 9.47 0 013.88-3.65A11.53 11.53 0 0112.62 13a11.66 11.66 0 015.31 1.21zm-1.75 17A7.46 7.46 0 0019 28.32a8.78 8.78 0 001-4.37 8.8 8.8 0 00-1-4.37 7.6 7.6 0 00-2.83-2.88 7.77 7.77 0 00-3.89-1 8.9 8.9 0 00-4.25 1 7.94 7.94 0 00-3.1 2.9A8.15 8.15 0 003.79 24a8.15 8.15 0 001.15 4.32A8 8 0 008 31.18a9 9 0 004.25 1 7.78 7.78 0 003.93-.98z"/></symbol><symbol id="7" viewBox="0 0 21.6 33.65"><path d="M21.6 1.58a10.48 10.48 0 01-1.06 4.61 50 50 0 01-3.36 5.71q-2.2 3.31-3.64 6a29.88 29.88 0 00-2.45 6.21 29.19 29.19 0 00-1 7.9v1.68H6.77v-1.82a29.81 29.81 0 011.1-8.3A34 34 0 0110.49 17c1-1.87 2.29-4 3.86-6.36 1.22-1.92 2.11-3.39 2.65-4.45A14.42 14.42 0 0018.34 3v-.07H0V0h21.6z"/></symbol><symbol id="8" viewBox="0 0 23.62 34.94"><path d="M11.81 34.94a14.73 14.73 0 01-5.95-1.17 10 10 0 01-4.28-3.46A9.34 9.34 0 010 24.86a8.71 8.71 0 011.8-5.49 9.62 9.62 0 014.82-3.29v-.14a8.54 8.54 0 01-3.81-2.88 7.15 7.15 0 01-1.42-4.37A7.68 7.68 0 012.83 4a9.13 9.13 0 013.84-3 12.83 12.83 0 015.14-1A12.82 12.82 0 0117 1a9.16 9.16 0 013.81 3 7.68 7.68 0 011.44 4.66 7.2 7.2 0 01-1.41 4.37A8.62 8.62 0 0117 15.94v.14a9.45 9.45 0 014.85 3.29 8.81 8.81 0 011.78 5.49A9.27 9.27 0 0122 30.31a9.94 9.94 0 01-4.27 3.46 14.76 14.76 0 01-5.92 1.17zm0-17.37a9.07 9.07 0 00-6 2 6.6 6.6 0 00-2.4 5.35 6.58 6.58 0 002.4 5.35 9.07 9.07 0 006 2 9.07 9.07 0 006-2 6.58 6.58 0 002.4-5.35 6.6 6.6 0 00-2.4-5.35 9.07 9.07 0 00-6-2zm0-14.88a8 8 0 00-3.51.77 6.39 6.39 0 00-2.59 2.16 5.41 5.41 0 00-1 3.16 5.4 5.4 0 002.07 4.35 7.6 7.6 0 005 1.7 8 8 0 003.53-.77 6.59 6.59 0 002.59-2.16 5.28 5.28 0 001-3.12 5.41 5.41 0 00-1-3.14 6.51 6.51 0 00-2.62-2.18 8 8 0 00-3.47-.77z"/></symbol><symbol id="9" viewBox="0 0 23.47 34.9"><path d="M5.52 20.69a9.84 9.84 0 01-4-3.7A10.82 10.82 0 010 11.18a11.14 11.14 0 011.58-6 10.63 10.63 0 014.13-3.86A11.54 11.54 0 0111.09 0q6.72 0 10 5.14a14.31 14.31 0 011.87 5.23 41.46 41.46 0 01.53 7.1Q23.47 27 19.9 31a11.46 11.46 0 01-8.81 3.94 10.83 10.83 0 01-6.46-2 10.19 10.19 0 01-3.86-5.68l3.36-.48a7.84 7.84 0 002.52 3.82 6.65 6.65 0 004.44 1.56A8.07 8.07 0 0017.5 29q2.61-3.12 2.61-11.33V17H20a9.5 9.5 0 01-3.87 3.65 11.41 11.41 0 01-5.3 1.25 11.77 11.77 0 01-5.31-1.21zM7.3 3.7a7.42 7.42 0 00-2.84 2.88 8.74 8.74 0 00-1 4.36 8.78 8.78 0 001 4.37 7.42 7.42 0 002.84 2.88 7.65 7.65 0 003.84 1 9 9 0 004.29-1 7.93 7.93 0 004.25-7.23 7.9 7.9 0 00-4.25-7.22 9 9 0 00-4.29-1 7.55 7.55 0 00-3.84.96z"/></symbol><symbol id="table" viewBox="0 0 512 512"><path fill="currentColor" d="M464 32H48C21.5 32 0 53.5 0 80v352c0 26.5 21.5 48 48 48h416c26.5 0 48-21.5 48-48V80c0-26.5-21.5-48-48-48zM197.3 72h117.3v96H197.3zm0 136h117.3v96H197.3zm-40 232H52c-6.6 0-12-5.4-12-12v-84h117.3zm0-136H40v-96h117.3zm0-136H40V84c0-6.6 5.4-12 12-12h105.3zm157.4 272H197.3v-96h117.3v96zm157.3 0H354.7v-96H472zm0-136H354.7v-96H472zm0-136H354.7V72H472z"/></symbol><symbol id="times" viewBox="0 0 320 512"><path fill="currentColor" d="M193.94 256L296.5 153.44l21.15-21.15c3.12-3.12 3.12-8.19 0-11.31l-22.63-22.63c-3.12-3.12-8.19-3.12-11.31 0L160 222.06 36.29 98.34c-3.12-3.12-8.19-3.12-11.31 0L2.34 120.97c-3.12 3.12-3.12 8.19 0 11.31L126.06 256 2.34 379.71c-3.12 3.12-3.12 8.19 0 11.31l22.63 22.63c3.12 3.12 8.19 3.12 11.31 0L160 289.94 262.56 392.5l21.15 21.15c3.12 3.12 8.19 3.12 11.31 0l22.63-22.63c3.12-3.12 3.12-8.19 0-11.31L193.94 256z"/></symbol></svg>